<svg width="256" height="256" viewBox="0 0 256 256" fill="none" xmlns="http://www.w3.org/2000/svg">
<path fill-rule="evenodd" clip-rule="evenodd" d="M54.5814 112.258C58.1358 110.137 62.8952 108.369 68.8131 106.929C80.0397 104.27 91.897 102.906 103.433 103.286C111.775 103.531 120.216 104.791 128.255 107.053C139.92 110.335 153.164 118.506 149.204 132.58C148.104 136.486 146.124 140.431 143.289 144.414C141.688 146.664 139.677 149.014 137.263 151.463C138.354 150.814 139.439 150.156 140.517 149.487C144.031 147.316 147.63 145.281 151.322 143.428C156.714 140.752 161.454 138.931 165.533 137.99C171.729 136.561 179.949 136.972 184.133 142.581C188.151 147.969 183.837 154.981 180.601 159.553C178.304 162.89 174.876 166.768 170.344 171.183C169.347 172.178 168.326 173.17 167.299 174.168C163.299 178.058 159.21 182.033 156.065 186.577C155.267 187.731 154.82 188.606 154.646 189.227C154.133 191.048 155.364 192.592 156.743 193.051C162.921 195.111 168.617 191.221 173.442 187.615C191.365 173.91 202.927 152.305 202.927 128C202.927 86.5786 169.348 53 127.927 53C91.9048 53 61.8142 78.395 54.5814 112.258ZM154.759 198.058C151.829 197.472 149.22 195.966 147.428 193.149C143.242 186.569 149.479 180.152 154.005 175.494C154.341 175.149 154.667 174.813 154.978 174.488C156.112 173.305 157.24 172.117 158.369 170.929C159.495 169.743 160.622 168.557 161.754 167.376C162.822 166.202 163.922 165.044 165.023 163.884C168.944 159.756 172.894 155.597 175.564 150.537C176.788 148.217 177.965 144.766 174.494 143.79C172.797 143.312 170.991 143.346 169.271 143.676C165.364 144.387 160.85 145.894 155.721 148.223C138.795 155.908 122.856 165.808 108.261 177.317C106.226 178.921 104.156 180.476 102.086 182.031C98.3654 184.826 94.6465 187.619 91.1412 190.695C90.5128 191.266 89.8831 191.792 89.252 192.272C100.545 199.082 113.778 203 127.927 203C137.381 203 146.427 201.251 154.759 198.058ZM80.8818 186.414C83.9689 184.67 86.8772 182.476 89.7393 180.318C90.6931 179.599 91.6417 178.883 92.5901 178.189C93.9625 177.186 95.3547 176.174 96.762 175.15C104.754 169.34 113.234 163.176 121.338 156.179C131.385 147.506 147.562 133.129 140.962 122.719C138.821 119.342 135.482 116.543 129.077 114.176C120.976 111.183 113.111 110.224 102.561 110.224C93.2515 110.414 83.7125 111.264 74.6389 113.435C68.8899 114.81 50.7177 119.262 53.3284 128.486C54.4063 132.295 59.6774 133.84 62.9518 134.762C68.1576 136.227 73.5306 136.504 78.9063 136.751C79.0017 136.759 79.0985 136.765 79.1965 136.772C80.2243 136.845 81.3709 136.925 82.1126 137.712C82.5326 138.157 82.6606 138.737 82.4995 139.309C82.0949 140.747 80.4388 141.213 79.1366 141.403C77.5174 141.64 75.2707 141.612 72.4419 141.352C68.789 141.016 64.9959 140.602 61.4559 139.606C58.3368 138.728 55.6441 137.688 53.4 136.474C55.6644 156.61 65.9021 174.334 80.8818 186.414Z" fill="black"/>
</svg>
