<svg width="256" height="256" viewBox="0 0 256 256" fill="none" xmlns="http://www.w3.org/2000/svg">
<path fill-rule="evenodd" clip-rule="evenodd" d="M59.1549 112.259C62.7093 110.137 67.4687 108.369 73.3866 106.929C84.6132 104.27 96.4705 102.906 108.006 103.286C116.349 103.531 124.79 104.791 132.828 107.053C144.493 110.336 157.737 118.506 153.777 132.58C152.678 136.486 150.697 140.431 147.863 144.414C146.262 146.664 144.251 149.014 141.836 151.463C142.927 150.814 144.013 150.157 145.091 149.487C148.605 147.316 152.203 145.281 155.895 143.428C161.287 140.753 166.028 138.931 170.107 137.99C176.302 136.561 184.523 136.972 188.706 142.581C192.725 147.969 188.41 154.981 185.175 159.553C182.877 162.89 179.449 166.768 174.917 171.183C173.92 172.178 172.899 173.171 171.873 174.169C167.872 178.058 163.784 182.033 160.639 186.577C159.84 187.731 159.394 188.606 159.219 189.227C158.707 191.048 159.938 192.592 161.316 193.051C167.494 195.111 173.19 191.221 178.016 187.615C195.939 173.91 207.5 152.305 207.5 128C207.5 86.5788 173.921 53.0001 132.5 53.0001C96.4782 53.0001 66.3877 78.3951 59.1549 112.259ZM159.332 198.058C156.403 197.472 153.794 195.966 152.001 193.149C147.815 186.569 154.052 180.152 158.579 175.494C158.914 175.149 159.24 174.813 159.552 174.488C160.686 173.305 161.814 172.117 162.942 170.93C164.069 169.743 165.196 168.557 166.328 167.376C167.396 166.202 168.495 165.044 169.597 163.884C173.518 159.757 177.468 155.597 180.137 150.537C181.361 148.217 182.538 144.767 179.067 143.79C177.371 143.312 175.565 143.346 173.845 143.676C169.937 144.387 165.424 145.895 160.295 148.223C143.369 155.908 127.429 165.809 112.834 177.317C110.8 178.921 108.729 180.476 106.659 182.031C102.939 184.826 99.22 187.619 95.7147 190.695C95.0863 191.266 94.4566 191.792 93.8255 192.273C105.118 199.082 118.352 203 132.5 203C141.955 203 151.001 201.251 159.332 198.058ZM85.4553 186.414C88.5424 184.67 91.4507 182.477 94.3128 180.318C95.2666 179.599 96.2152 178.883 97.1635 178.19C98.5359 177.186 99.9282 176.174 101.335 175.151C109.328 169.34 117.807 163.176 125.912 156.179C135.959 147.506 152.136 133.13 145.536 122.719C143.395 119.342 140.056 116.543 133.65 114.176C125.549 111.183 117.685 110.224 107.135 110.224C97.825 110.414 88.286 111.265 79.2124 113.435C73.4634 114.811 55.2911 119.262 57.9019 128.486C58.9798 132.295 64.2509 133.84 67.5253 134.762C72.7311 136.227 78.1041 136.504 83.4798 136.751C83.5751 136.759 83.672 136.765 83.77 136.772C84.7978 136.845 85.9444 136.925 86.6861 137.712C87.106 138.157 87.2341 138.737 87.073 139.309C86.6684 140.747 85.0123 141.213 83.7101 141.403C82.0909 141.64 79.8442 141.612 77.0154 141.352C73.3625 141.016 69.5694 140.602 66.0294 139.606C62.9103 138.728 60.2176 137.688 57.9735 136.474C60.2378 156.611 70.4756 174.334 85.4553 186.414Z" fill="url(#paint0_linear_13_357)"/>
<defs>
<linearGradient id="paint0_linear_13_357" x1="57.647" y1="53.0001" x2="207.647" y2="202.853" gradientUnits="userSpaceOnUse">
<stop stop-color="#FF595E"/>
<stop offset="0.34375" stop-color="#CE51C2"/>
<stop offset="1" stop-color="#317BEA"/>
</linearGradient>
</defs>
</svg>
