<svg width="256" height="256" viewBox="0 0 256 256" fill="none" xmlns="http://www.w3.org/2000/svg">
<g clip-path="url(#clip0_101_23)">
<path fill-rule="evenodd" clip-rule="evenodd" d="M2.5799 101.132C8.65165 97.512 16.781 94.4958 26.8885 92.0381C46.0673 87.5 66.3236 85.1733 86.0304 85.8218C100.283 86.2396 114.702 88.39 128.435 92.2505C148.363 97.8525 170.988 111.797 164.223 135.816C162.345 142.483 158.961 149.216 154.119 156.013C151.383 159.853 147.949 163.863 143.824 168.043C145.687 166.936 147.542 165.814 149.384 164.671C155.387 160.966 161.534 157.493 167.841 154.331C177.052 149.764 185.151 146.656 192.119 145.05C202.703 142.611 216.747 143.312 223.894 152.885C230.758 162.081 223.387 174.047 217.861 181.85C213.935 187.545 208.079 194.165 200.338 201.699C198.634 203.397 196.89 205.091 195.136 206.794C188.302 213.432 181.317 220.217 175.945 227.972C174.58 229.942 173.818 231.435 173.52 232.493C172.644 235.602 174.747 238.236 177.102 239.021C186.774 242.242 195.754 236.937 203.531 231.291C235.332 207.999 256 170.408 256 128C256 57.3076 198.567 0 127.875 0C66.3983 0 14.9495 43.3396 2.5799 101.132ZM173.695 247.561C168.697 246.558 164.247 243.99 161.189 239.188C154.038 227.958 164.692 217.005 172.425 209.056C172.998 208.467 173.555 207.895 174.088 207.34C176.025 205.32 177.953 203.292 179.882 201.264C181.806 199.24 183.73 197.217 185.663 195.201C187.488 193.197 189.366 191.222 191.248 189.243C197.946 182.198 204.695 175.099 209.254 166.463C211.345 162.503 213.357 156.615 207.427 154.948C204.529 154.133 201.443 154.191 198.505 154.753C191.83 155.966 184.119 158.54 175.357 162.514C146.442 175.63 119.211 192.526 94.2788 212.167C90.8032 214.905 87.266 217.56 83.7297 220.213C77.3738 224.982 71.0207 229.75 65.0324 235C63.9635 235.97 62.8924 236.864 61.8188 237.681C81.1148 249.31 103.721 256 127.875 256C144.014 256 159.463 253.013 173.695 247.561ZM47.5232 227.683C52.7906 224.708 57.7535 220.969 62.6376 217.289C64.2669 216.061 65.8874 214.841 67.5076 213.657C69.8521 211.944 72.2306 210.216 74.6348 208.47C88.2883 198.554 102.774 188.033 116.619 176.093C133.783 161.291 161.419 136.754 150.144 118.987C146.486 113.223 140.782 108.446 129.839 104.408C116 99.2996 102.565 97.6616 84.5416 97.6616C68.6375 97.9865 52.3417 99.438 36.841 103.142C27.0197 105.49 -4.02462 113.088 0.435364 128.83C2.27681 135.33 11.2817 137.968 16.8755 139.54C25.7687 142.04 34.9476 142.514 44.1311 142.935C44.294 142.948 44.4596 142.96 44.6269 142.971C46.3828 143.095 48.3415 143.232 49.6086 144.575C50.326 145.335 50.5447 146.324 50.2696 147.301C49.5784 149.755 46.7491 150.549 44.5245 150.875C41.7584 151.279 37.9203 151.231 33.0878 150.787C26.8474 150.214 20.3674 149.507 14.32 147.807C8.99209 146.31 4.39254 144.535 0.559228 142.463C4.4313 176.824 21.9339 207.068 47.5232 227.683Z" fill="url(#paint0_linear_101_23)"/>
</g>
<defs>
<linearGradient id="paint0_linear_101_23" x1="0" y1="0" x2="256" y2="256" gradientUnits="userSpaceOnUse">
<stop stop-color="#FF595E"/>
<stop offset="0.34375" stop-color="#CE51C2"/>
<stop offset="1" stop-color="#317BEA"/>
</linearGradient>
<clipPath id="clip0_101_23">
<rect width="256" height="256" fill="white"/>
</clipPath>
</defs>
</svg>
