<svg width="256" height="256" viewBox="0 0 256 256" fill="none" xmlns="http://www.w3.org/2000/svg">
<path fill-rule="evenodd" clip-rule="evenodd" d="M32.7238 106.592C37.5578 103.706 44.0307 101.302 52.0792 99.343C67.3473 95.7268 83.4733 93.8727 99.1618 94.3894C110.508 94.7224 121.987 96.436 132.92 99.5123C148.784 103.976 166.796 115.088 161.41 134.229C159.915 139.541 157.222 144.906 153.367 150.323C151.189 153.383 148.455 156.579 145.171 159.91C146.654 159.027 148.131 158.133 149.597 157.222C154.376 154.27 159.27 151.503 164.291 148.982C171.624 145.343 178.071 142.867 183.619 141.587C192.045 139.643 203.224 140.202 208.914 147.831C214.379 155.158 208.511 164.694 204.111 170.912C200.986 175.45 196.324 180.725 190.161 186.729C188.805 188.082 187.416 189.432 186.02 190.789C180.58 196.079 175.019 201.486 170.742 207.665C169.656 209.235 169.049 210.424 168.812 211.268C168.114 213.746 169.788 215.845 171.664 216.47C180.06 219.269 187.801 213.988 194.361 209.087C218.744 190.448 234.473 161.061 234.473 128C234.473 71.6672 188.806 26.0002 132.473 26.0002C83.4835 26.0002 42.5603 60.5375 32.7238 106.592ZM168.965 223.278C164.981 222.481 161.433 220.434 158.995 216.603C153.302 207.654 161.784 198.926 167.94 192.592C168.397 192.122 168.84 191.666 169.264 191.224C170.806 189.615 172.341 187.999 173.876 186.383C175.408 184.77 176.94 183.157 178.479 181.551C179.932 179.954 181.427 178.38 182.925 176.803C188.257 171.189 193.63 165.533 197.26 158.651C198.924 155.495 200.526 150.803 195.805 149.474C193.498 148.825 191.041 148.871 188.702 149.319C183.388 150.286 177.249 152.337 170.274 155.504C147.255 165.955 125.577 179.42 105.728 195.071C102.961 197.253 100.145 199.368 97.3302 201.482C92.2703 205.283 87.2126 209.082 82.4454 213.265C81.5908 214.042 80.7343 214.758 79.876 215.411C95.2341 224.672 113.231 230 132.473 230C145.332 230 157.634 227.621 168.965 223.278ZM68.4925 207.443C72.691 205.071 76.6464 202.088 80.539 199.152C81.836 198.174 83.1261 197.201 84.4158 196.258C86.2823 194.893 88.1757 193.516 90.0896 192.125C100.959 184.223 112.491 175.839 123.513 166.324C137.177 154.529 159.178 134.976 150.202 120.818C147.29 116.225 142.749 112.418 134.038 109.2C123.021 105.13 112.325 103.824 97.9765 103.824C85.3154 104.083 72.3424 105.24 60.0023 108.191C52.1836 110.062 27.4694 116.117 31.02 128.662C32.4859 133.841 39.6547 135.943 44.1079 137.196C51.1877 139.188 58.495 139.566 65.8059 139.902C65.9356 139.912 66.0674 139.921 66.2006 139.93C67.5985 140.029 69.1578 140.138 70.1666 141.208C70.7376 141.814 70.9117 142.602 70.6927 143.38C70.1425 145.336 67.8901 145.969 66.1191 146.228C63.917 146.551 60.8615 146.513 57.0144 146.159C52.0465 145.702 46.8878 145.139 42.0735 143.784C37.8313 142.591 34.1692 141.176 31.1172 139.524C34.1966 166.91 48.12 191.015 68.4925 207.443Z" fill="url(#paint0_linear_14_2)"/>
<defs>
<linearGradient id="paint0_linear_14_2" x1="30.6733" y1="26.0002" x2="234.673" y2="229.8" gradientUnits="userSpaceOnUse">
<stop stop-color="#FF595E"/>
<stop offset="0.34375" stop-color="#CE51C2"/>
<stop offset="1" stop-color="#317BEA"/>
</linearGradient>
</defs>
</svg>
