<svg width="256" height="256" viewBox="0 0 256 256" fill="none" xmlns="http://www.w3.org/2000/svg">
<path fill-rule="evenodd" clip-rule="evenodd" d="M54.5814 87.7585C58.1358 85.6368 62.8952 83.8691 68.8131 82.4287C80.0397 79.7696 91.897 78.4063 103.433 78.7863C111.775 79.0311 120.216 80.2911 128.255 82.5531C139.92 85.8355 153.164 94.0059 149.204 108.08C148.104 111.986 146.124 115.931 143.289 119.914C141.688 122.164 139.677 124.514 137.263 126.963C138.354 126.314 139.439 125.657 140.517 124.987C144.031 122.816 147.63 120.781 151.322 118.928C156.714 116.253 161.454 114.431 165.533 113.49C171.729 112.061 179.949 112.472 184.133 118.081C188.151 123.469 183.837 130.481 180.601 135.053C178.304 138.39 174.876 142.268 170.344 146.683C169.347 147.678 168.326 148.67 167.299 149.669C163.299 153.558 159.21 157.533 156.065 162.077C155.267 163.231 154.82 164.106 154.646 164.727C154.133 166.548 155.364 168.092 156.743 168.551C162.921 170.611 168.617 166.721 173.442 163.115C191.365 149.41 202.927 127.805 202.927 103.5C202.927 62.0788 169.348 28.5001 127.927 28.5001C91.9048 28.5001 61.8142 53.8951 54.5814 87.7585ZM154.759 173.558C151.829 172.972 149.22 171.466 147.428 168.649C143.242 162.069 149.479 155.652 154.005 150.994C154.341 150.649 154.667 150.313 154.978 149.988C156.112 148.805 157.241 147.617 158.37 146.429C159.496 145.243 160.622 144.057 161.754 142.876C162.822 141.702 163.922 140.544 165.023 139.384C168.944 135.257 172.894 131.097 175.564 126.037C176.788 123.717 177.965 120.267 174.494 119.29C172.797 118.812 170.991 118.846 169.271 119.176C165.364 119.887 160.85 121.395 155.721 123.723C138.795 131.408 122.856 141.309 108.261 152.817C106.226 154.421 104.156 155.976 102.086 157.531C98.3654 160.326 94.6465 163.119 91.1412 166.195C90.5128 166.766 89.8831 167.292 89.252 167.773C100.545 174.582 113.778 178.5 127.927 178.5C137.381 178.5 146.427 176.751 154.759 173.558ZM80.8818 161.914C83.9689 160.17 86.8772 157.977 89.7393 155.818C90.6931 155.099 91.6417 154.383 92.5901 153.69C93.9625 152.686 95.3547 151.674 96.762 150.651C104.754 144.84 113.234 138.676 121.338 131.679C131.385 123.006 147.562 108.63 140.962 98.219C138.821 94.8418 135.482 92.0429 129.077 89.6764C120.976 86.6834 113.111 85.7237 102.561 85.7237C93.2515 85.9141 83.7125 86.7645 74.6389 88.9348C68.8899 90.3105 50.7177 94.7625 53.3284 103.986C54.4063 107.795 59.6774 109.34 62.9518 110.262C68.1576 111.727 73.5306 112.004 78.9063 112.251C79.0017 112.259 79.0985 112.265 79.1965 112.272C80.2243 112.345 81.3709 112.425 82.1126 113.212C82.5326 113.657 82.6606 114.237 82.4995 114.809C82.0949 116.247 80.4388 116.713 79.1366 116.903C77.5174 117.14 75.2707 117.112 72.4419 116.852C68.789 116.516 64.9959 116.102 61.4559 115.106C58.3368 114.228 55.6441 113.188 53.4 111.974C55.6644 132.111 65.9021 149.834 80.8818 161.914Z" fill="black"/>
<path d="M78.2885 225.5V191.2H83.0415L104.014 219.277L103.23 219.718C103.099 218.901 102.985 218.019 102.887 217.072C102.789 216.092 102.691 215.063 102.593 213.985C102.527 212.874 102.462 211.715 102.397 210.506C102.364 209.265 102.331 207.974 102.299 206.635C102.266 205.296 102.25 203.907 102.25 202.47V191.2H107.542V225.5H102.691L82.0615 198.452L82.6005 197.766C82.7639 199.759 82.8945 201.457 82.9925 202.862C83.1232 204.234 83.2212 205.41 83.2865 206.39C83.3845 207.337 83.4499 208.121 83.4825 208.742C83.5152 209.33 83.5315 209.82 83.5315 210.212C83.5642 210.604 83.5805 210.947 83.5805 211.241V225.5H78.2885ZM128.414 225.99C125.899 225.99 123.645 225.418 121.652 224.275C119.692 223.099 118.14 221.515 116.997 219.522C115.854 217.497 115.282 215.194 115.282 212.613C115.282 210.032 115.854 207.746 116.997 205.753C118.14 203.728 119.692 202.143 121.652 201C123.645 199.824 125.899 199.236 128.414 199.236C130.897 199.236 133.118 199.824 135.078 201C137.071 202.143 138.639 203.728 139.782 205.753C140.925 207.746 141.497 210.032 141.497 212.613C141.497 215.194 140.925 217.497 139.782 219.522C138.639 221.515 137.071 223.099 135.078 224.275C133.118 225.418 130.897 225.99 128.414 225.99ZM128.414 221.384C129.949 221.384 131.321 221.008 132.53 220.257C133.739 219.473 134.686 218.428 135.372 217.121C136.058 215.782 136.385 214.279 136.352 212.613C136.385 210.914 136.058 209.412 135.372 208.105C134.686 206.766 133.739 205.72 132.53 204.969C131.321 204.218 129.949 203.842 128.414 203.842C126.879 203.842 125.49 204.234 124.249 205.018C123.04 205.769 122.093 206.815 121.407 208.154C120.721 209.461 120.394 210.947 120.427 212.613C120.394 214.279 120.721 215.782 121.407 217.121C122.093 218.428 123.04 219.473 124.249 220.257C125.49 221.008 126.879 221.384 128.414 221.384ZM148.809 225.5V199.775H153.856V225.5H148.809ZM151.259 194.091C150.181 194.091 149.348 193.813 148.76 193.258C148.172 192.703 147.878 191.919 147.878 190.906C147.878 189.959 148.172 189.191 148.76 188.603C149.381 188.015 150.214 187.721 151.259 187.721C152.337 187.721 153.17 187.999 153.758 188.554C154.346 189.109 154.64 189.893 154.64 190.906C154.64 191.853 154.33 192.621 153.709 193.209C153.121 193.797 152.305 194.091 151.259 194.091ZM171.169 225.99C169.013 225.99 167.07 225.614 165.338 224.863C163.607 224.112 162.17 223.001 161.026 221.531L164.456 218.591C165.436 219.734 166.498 220.567 167.641 221.09C168.817 221.58 170.14 221.825 171.61 221.825C172.198 221.825 172.737 221.76 173.227 221.629C173.75 221.466 174.191 221.237 174.55 220.943C174.942 220.649 175.236 220.306 175.432 219.914C175.628 219.489 175.726 219.032 175.726 218.542C175.726 217.693 175.416 217.007 174.795 216.484C174.469 216.255 173.946 216.01 173.227 215.749C172.541 215.455 171.643 215.161 170.532 214.867C168.638 214.377 167.086 213.822 165.877 213.201C164.669 212.58 163.738 211.878 163.084 211.094C162.594 210.473 162.235 209.804 162.006 209.085C161.778 208.334 161.663 207.517 161.663 206.635C161.663 205.557 161.892 204.577 162.349 203.695C162.839 202.78 163.493 201.996 164.309 201.343C165.159 200.657 166.139 200.134 167.249 199.775C168.393 199.416 169.601 199.236 170.875 199.236C172.084 199.236 173.276 199.399 174.452 199.726C175.661 200.053 176.772 200.526 177.784 201.147C178.797 201.768 179.646 202.503 180.332 203.352L177.441 206.537C176.821 205.916 176.135 205.377 175.383 204.92C174.665 204.43 173.93 204.054 173.178 203.793C172.427 203.532 171.741 203.401 171.12 203.401C170.434 203.401 169.814 203.466 169.258 203.597C168.703 203.728 168.229 203.924 167.837 204.185C167.478 204.446 167.2 204.773 167.004 205.165C166.808 205.557 166.71 205.998 166.71 206.488C166.743 206.913 166.841 207.321 167.004 207.713C167.2 208.072 167.462 208.383 167.788 208.644C168.148 208.905 168.687 209.183 169.405 209.477C170.124 209.771 171.039 210.049 172.149 210.31C173.783 210.735 175.122 211.208 176.167 211.731C177.245 212.221 178.095 212.793 178.715 213.446C179.369 214.067 179.826 214.785 180.087 215.602C180.349 216.419 180.479 217.333 180.479 218.346C180.479 219.816 180.055 221.139 179.205 222.315C178.389 223.458 177.278 224.357 175.873 225.01C174.469 225.663 172.901 225.99 171.169 225.99Z" fill="black"/>
</svg>
