<svg width="512" height="256" viewBox="0 0 512 256" fill="none" xmlns="http://www.w3.org/2000/svg">
<path fill-rule="evenodd" clip-rule="evenodd" d="M56.5811 112.259C60.1356 110.137 64.895 108.369 70.8128 106.929C82.0394 104.27 93.8968 102.906 105.432 103.286C113.775 103.531 122.216 104.791 130.255 107.053C141.92 110.336 155.164 118.506 151.203 132.58C150.104 136.486 148.124 140.431 145.289 144.414C143.688 146.664 141.677 149.014 139.263 151.463C140.353 150.814 141.439 150.157 142.517 149.487C146.031 147.316 149.63 145.281 153.321 143.428C158.713 140.753 163.454 138.931 167.533 137.99C173.729 136.561 181.949 136.972 186.133 142.581C190.151 147.969 185.836 154.981 182.601 159.553C180.303 162.89 176.875 166.768 172.344 171.183C171.346 172.178 170.326 173.17 169.299 174.169C165.299 178.058 161.21 182.033 158.065 186.577C157.266 187.731 156.82 188.606 156.646 189.227C156.133 191.048 157.364 192.592 158.743 193.051C164.921 195.111 170.617 191.221 175.442 187.615C193.365 173.91 204.926 152.305 204.926 128C204.926 86.5788 171.348 53.0001 129.926 53.0001C93.9045 53.0001 63.8139 78.3951 56.5811 112.259ZM156.759 198.058C153.829 197.472 151.22 195.966 149.428 193.149C145.242 186.569 151.478 180.152 156.005 175.494C156.34 175.149 156.666 174.813 156.978 174.488C158.112 173.305 159.241 172.117 160.369 170.929C161.496 169.743 162.622 168.557 163.754 167.376C164.822 166.202 165.921 165.044 167.023 163.884C170.944 159.757 174.894 155.597 177.563 150.537C178.787 148.217 179.965 144.767 176.494 143.79C174.797 143.312 172.991 143.346 171.271 143.676C167.364 144.387 162.85 145.895 157.721 148.223C140.795 155.908 124.855 165.809 110.261 177.317C108.226 178.921 106.156 180.476 104.086 182.031C100.365 184.826 96.6463 187.619 93.141 190.695C92.5126 191.266 91.8829 191.792 91.2517 192.273C102.544 199.082 115.778 203 129.926 203C139.381 203 148.427 201.251 156.759 198.058ZM82.8816 186.414C85.9686 184.67 88.877 182.477 91.7391 180.318C92.6928 179.599 93.6414 178.883 94.5898 178.19C95.9622 177.186 97.3544 176.174 98.7617 175.151C106.754 169.34 115.233 163.176 123.338 156.179C133.385 147.506 149.562 133.13 142.962 122.719C140.821 119.342 137.482 116.543 131.077 114.176C122.976 111.183 115.111 110.224 104.561 110.224C95.2512 110.414 85.7123 111.265 76.6387 113.435C70.8897 114.811 52.7174 119.262 55.3281 128.486C56.406 132.295 61.6772 133.84 64.9516 134.762C70.1573 136.227 75.5304 136.504 80.9061 136.751C81.0014 136.759 81.0983 136.765 81.1963 136.772C82.2241 136.845 83.3706 136.925 84.1124 137.712C84.5323 138.157 84.6603 138.737 84.4993 139.309C84.0947 140.747 82.4385 141.213 81.1363 141.403C79.5171 141.64 77.2705 141.612 74.4417 141.352C70.7888 141.016 66.9956 140.602 63.4557 139.606C60.3365 138.728 57.6439 137.688 55.3998 136.474C57.6641 156.611 67.9018 174.334 82.8816 186.414Z" fill="url(#paint0_linear_13_308)"/>
<path d="M243.974 166V96.0001H253.674L296.474 153.3L294.874 154.2C294.608 152.533 294.374 150.733 294.174 148.8C293.974 146.8 293.774 144.7 293.574 142.5C293.441 140.233 293.308 137.867 293.174 135.4C293.108 132.867 293.041 130.233 292.974 127.5C292.908 124.767 292.874 121.933 292.874 119V96.0001H303.674V166H293.774L251.674 110.8L252.774 109.4C253.108 113.467 253.374 116.933 253.574 119.8C253.841 122.6 254.041 125 254.174 127C254.374 128.933 254.508 130.533 254.574 131.8C254.641 133 254.674 134 254.674 134.8C254.741 135.6 254.774 136.3 254.774 136.9V166H243.974ZM346.271 167C341.138 167 336.538 165.833 332.471 163.5C328.471 161.1 325.305 157.867 322.971 153.8C320.638 149.667 319.471 144.967 319.471 139.7C319.471 134.433 320.638 129.767 322.971 125.7C325.305 121.567 328.471 118.333 332.471 116C336.538 113.6 341.138 112.4 346.271 112.4C351.338 112.4 355.871 113.6 359.871 116C363.938 118.333 367.138 121.567 369.471 125.7C371.805 129.767 372.971 134.433 372.971 139.7C372.971 144.967 371.805 149.667 369.471 153.8C367.138 157.867 363.938 161.1 359.871 163.5C355.871 165.833 351.338 167 346.271 167ZM346.271 157.6C349.405 157.6 352.205 156.833 354.671 155.3C357.138 153.7 359.071 151.567 360.471 148.9C361.871 146.167 362.538 143.1 362.471 139.7C362.538 136.233 361.871 133.167 360.471 130.5C359.071 127.767 357.138 125.633 354.671 124.1C352.205 122.567 349.405 121.8 346.271 121.8C343.138 121.8 340.305 122.6 337.771 124.2C335.305 125.733 333.371 127.867 331.971 130.6C330.571 133.267 329.905 136.3 329.971 139.7C329.905 143.1 330.571 146.167 331.971 148.9C333.371 151.567 335.305 153.7 337.771 155.3C340.305 156.833 343.138 157.6 346.271 157.6ZM387.895 166V113.5H398.195V166H387.895ZM392.895 101.9C390.695 101.9 388.995 101.333 387.795 100.2C386.595 99.0668 385.995 97.4668 385.995 95.4001C385.995 93.4668 386.595 91.9001 387.795 90.7001C389.061 89.5001 390.761 88.9001 392.895 88.9001C395.095 88.9001 396.795 89.4668 397.995 90.6001C399.195 91.7335 399.795 93.3335 399.795 95.4001C399.795 97.3335 399.161 98.9001 397.895 100.1C396.695 101.3 395.028 101.9 392.895 101.9ZM433.527 167C429.127 167 425.16 166.233 421.627 164.7C418.093 163.167 415.16 160.9 412.827 157.9L419.827 151.9C421.827 154.233 423.993 155.933 426.327 157C428.727 158 431.427 158.5 434.427 158.5C435.627 158.5 436.727 158.367 437.727 158.1C438.793 157.767 439.693 157.3 440.427 156.7C441.227 156.1 441.827 155.4 442.227 154.6C442.627 153.733 442.827 152.8 442.827 151.8C442.827 150.067 442.193 148.667 440.927 147.6C440.26 147.133 439.193 146.633 437.727 146.1C436.327 145.5 434.493 144.9 432.227 144.3C428.36 143.3 425.193 142.167 422.727 140.9C420.26 139.633 418.36 138.2 417.027 136.6C416.027 135.333 415.293 133.967 414.827 132.5C414.36 130.967 414.127 129.3 414.127 127.5C414.127 125.3 414.593 123.3 415.527 121.5C416.527 119.633 417.86 118.033 419.527 116.7C421.26 115.3 423.26 114.233 425.527 113.5C427.86 112.767 430.327 112.4 432.927 112.4C435.393 112.4 437.827 112.733 440.227 113.4C442.693 114.067 444.96 115.033 447.027 116.3C449.093 117.567 450.827 119.067 452.227 120.8L446.327 127.3C445.06 126.033 443.66 124.933 442.127 124C440.66 123 439.16 122.233 437.627 121.7C436.093 121.167 434.693 120.9 433.427 120.9C432.027 120.9 430.76 121.033 429.627 121.3C428.493 121.567 427.527 121.967 426.727 122.5C425.993 123.033 425.427 123.7 425.027 124.5C424.627 125.3 424.427 126.2 424.427 127.2C424.493 128.067 424.693 128.9 425.027 129.7C425.427 130.433 425.96 131.067 426.627 131.6C427.36 132.133 428.46 132.7 429.927 133.3C431.393 133.9 433.26 134.467 435.527 135C438.86 135.867 441.593 136.833 443.727 137.9C445.927 138.9 447.66 140.067 448.927 141.4C450.26 142.667 451.193 144.133 451.727 145.8C452.26 147.467 452.527 149.333 452.527 151.4C452.527 154.4 451.66 157.1 449.927 159.5C448.26 161.833 445.993 163.667 443.127 165C440.26 166.333 437.06 167 433.527 167Z" fill="#7568D8"/>
<defs>
<linearGradient id="paint0_linear_13_308" x1="55.0732" y1="53.0001" x2="205.073" y2="202.853" gradientUnits="userSpaceOnUse">
<stop stop-color="#FF595E"/>
<stop offset="0.34375" stop-color="#CE51C2"/>
<stop offset="1" stop-color="#317BEA"/>
</linearGradient>
</defs>
</svg>
