<svg width="256" height="256" viewBox="0 0 256 256" fill="none" xmlns="http://www.w3.org/2000/svg">
<path fill-rule="evenodd" clip-rule="evenodd" d="M32.724 106.592C37.558 103.706 44.0309 101.302 52.0794 99.343C67.3475 95.7267 83.4735 93.8727 99.162 94.3894C110.508 94.7224 121.988 96.4359 132.92 99.5122C148.785 103.976 166.796 115.088 161.41 134.229C159.915 139.541 157.222 144.906 153.367 150.323C151.189 153.383 148.455 156.579 145.171 159.91C146.654 159.027 148.131 158.133 149.597 157.222C154.376 154.27 159.27 151.503 164.291 148.982C171.624 145.343 178.071 142.867 183.619 141.587C192.045 139.643 203.225 140.202 208.914 147.831C214.379 155.158 208.511 164.694 204.111 170.912C200.986 175.45 196.324 180.725 190.161 186.729C188.805 188.082 187.417 189.432 186.02 190.789C180.58 196.079 175.019 201.485 170.742 207.665C169.656 209.235 169.049 210.424 168.812 211.268C168.115 213.746 169.789 215.845 171.664 216.47C180.06 219.269 187.802 213.988 194.361 209.086C218.744 190.448 234.473 161.061 234.473 128C234.473 71.6671 188.807 26.0002 132.474 26.0002C83.4837 26.0002 42.5605 60.5374 32.724 106.592ZM168.965 223.278C164.981 222.481 161.433 220.434 158.995 216.603C153.302 207.654 161.784 198.926 167.941 192.592C168.397 192.122 168.84 191.666 169.264 191.224C170.806 189.615 172.341 187.999 173.876 186.383C175.408 184.77 176.94 183.157 178.479 181.551C179.932 179.954 181.427 178.38 182.925 176.803C188.257 171.189 193.63 165.532 197.26 158.651C198.925 155.495 200.526 150.802 195.805 149.474C193.498 148.825 191.041 148.871 188.702 149.319C183.388 150.286 177.25 152.337 170.274 155.504C147.255 165.955 125.577 179.42 105.728 195.071C102.962 197.253 100.146 199.368 97.3305 201.482C92.2706 205.283 87.2128 209.082 82.4456 213.265C81.591 214.042 80.7345 214.757 79.8762 215.411C95.2343 224.672 113.232 230 132.474 230C145.332 230 157.635 227.621 168.965 223.278ZM68.4927 207.443C72.6912 205.071 76.6466 202.088 80.5391 199.152C81.8362 198.174 83.1262 197.201 84.416 196.258C86.2825 194.893 88.1759 193.516 90.0898 192.125C100.959 184.223 112.491 175.839 123.513 166.324C137.177 154.529 159.178 134.976 150.202 120.818C147.29 116.225 142.749 112.418 134.038 109.2C123.021 105.129 112.325 103.824 97.9767 103.824C85.3156 104.083 72.3426 105.24 60.0025 108.191C52.1838 110.062 27.4696 116.117 31.0202 128.662C32.4861 133.841 39.6549 135.943 44.1081 137.196C51.1879 139.188 58.4952 139.566 65.8061 139.902C65.9358 139.912 66.0676 139.921 66.2009 139.93C67.5987 140.029 69.158 140.138 70.1667 141.208C70.7378 141.814 70.9119 142.602 70.6929 143.38C70.1427 145.336 67.8903 145.969 66.1193 146.228C63.9172 146.551 60.8617 146.513 57.0146 146.159C52.0467 145.702 46.888 145.139 42.0736 143.784C37.8315 142.59 34.1694 141.176 31.1174 139.524C34.1968 166.91 48.1202 191.015 68.4927 207.443Z" fill="url(#paint0_linear_14_2)"/>
<defs>
<linearGradient id="paint0_linear_14_2" x1="30.6733" y1="26.0002" x2="234.673" y2="229.8" gradientUnits="userSpaceOnUse">
<stop stop-color="#FF595E"/>
<stop offset="0.34375" stop-color="#CE51C2"/>
<stop offset="1" stop-color="#317BEA"/>
</linearGradient>
</defs>
</svg>
